<?xml version="1.0" standalone="no"?><svg xmlns="http://www.w3.org/2000/svg" viewBox="0 0 1440 320"><path fill="#002020" fill-opacity="1" d="M0,64L34.3,96C68.6,128,137,192,206,208C274.3,224,343,192,411,154.7C480,117,549,75,617,69.3C685.7,64,754,96,823,122.7C891.4,149,960,171,1029,192C1097.1,213,1166,235,1234,218.7C1302.9,203,1371,149,1406,122.7L1440,96L1440,320L1405.7,320C1371.4,320,1303,320,1234,320C1165.7,320,1097,320,1029,320C960,320,891,320,823,320C754.3,320,686,320,617,320C548.6,320,480,320,411,320C342.9,320,274,320,206,320C137.1,320,69,320,34,320L0,320Z"></path></svg>